<?xml version="1.0" encoding="UTF-8"?>
<svg id="Layer_2" data-name="Layer 2" xmlns="http://www.w3.org/2000/svg" viewBox="0 0 753.88 213.83">
  <defs>
    <style>
      .cls-1 {
        fill: #fff;
        stroke-width: 0px;
      }
    </style>
  </defs>
  <g id="Layer_1-2" data-name="Layer 1">
    <g>
      <path class="cls-1" d="M586.64,57.56c1.49-6.44,3.19-7.54,9.51-6.35,1.63.31,3.24.75,4.84,1.19,4.25,1.17,6.07,3.6,5.91,8.37-.56,16.48-.86,32.98-.82,49.48.01,5.6.74,11.35,2.19,16.75,1.89,7.04,8.26,8.16,12.73,2.41,5.11-6.58,8.08-14.17,8.24-22.6.32-16.99.44-33.99.7-50.99.09-5.92,1.01-6.68,6.78-5.99.33.04.66.07.99.13,10.7,1.78,11.02,2.17,11,13.08-.02,7.47,0,14.95.93,22.74.5-1.18,1.06-2.34,1.5-3.55,3.01-8.28,5.74-16.68,9.07-24.83,3.22-7.87,5.44-8.93,12.37-7.5,7.82,1.61,12.13,5.98,12.42,12.83.41,9.65.66,19.32,1.09,28.97.15,3.3.62,6.59.96,9.97,3.4-11.69,6.65-23.2,10.11-34.65,1.2-3.97,2.73-7.87,4.46-11.64.87-1.88,2.2-3.98,3.91-4.96,7.17-4.11,21.95,5.05,21.87,13.29-.16,15.49-.57,31-.18,46.48.14,5.68,1.8,11.48,3.69,16.9.73,2.11,4.01,4.64,6.11,4.62,2.09-.02,4.98-2.59,6.05-4.77,1.95-3.97,2.6-8.56,4.24-12.72.68-1.72,2.49-3,3.79-4.48.99,1.86,3.11,3.97,2.76,5.53-1.57,7.06-2.75,14.56-6.1,20.81-5.88,10.99-19.8,11.52-28.78,1.93-6.01-6.42-8.22-14.52-8.71-22.9-.77-13.12-.79-26.29-1.14-39.44-.02-.9-.12-1.79-.18-2.69-.59-.14-1.17-.27-1.76-.41-3.33,10.84-7.24,21.55-9.82,32.57-2,8.53-2.58,17.43-3.3,26.2-.31,3.8-1.98,5.33-5.37,5.88-7.58,1.24-13.91-2.9-15.22-11.61-2.02-13.48-3.07-27.1-4.43-40.67-.38-3.76-.4-7.56-.59-11.34-.42-.12-.83-.25-1.25-.37-1,1.56-2.19,3.03-2.98,4.69-6.52,13.84-10.62,28.32-11.24,43.69-.24,5.83-.61,11.65-.78,17.48-.1,3.26-1.72,4.93-4.82,5.23-2.15.21-4.33.38-6.48.26-8.38-.48-10.24-2.39-10.85-10.75-.06-.76-.22-1.5-.59-3.9-4.81,9.62-10.56,16.19-20.95,14.43-9.81-1.66-15.22-8.23-17.78-18.52-5.86,9.58-12.95,16.82-23.88,18.45-11.55,1.73-19.41-4.03-25.25-13.81-1.01,1.51-1.81,2.73-2.64,3.94-8.62,12.63-22.73,13.58-32.99,2.17-6.24-6.93-8.87-15.52-8.63-24.43.32-12.09,2.02-24.14,3.15-36.21.11-1.13.36-2.24.66-4.01-4.89,0-9.46-.14-14,.13-.85.05-1.95,1.63-2.36,2.72-8.03,21.38-19.06,41.01-33.66,58.64-1.28,1.54-1.56,4.3-1.52,6.47.3,15.49,1.1,30.99-2.7,46.24-3.23,12.95-9.96,22.84-23.45,26.72-9.95,2.86-22.29-.95-28.11-8.49-5.64-7.29-6.05-18.38.24-27.65,4.54-6.69,10.26-12.64,15.87-18.53,4.93-5.18,10.18-10.13,15.77-14.59,4.31-3.44,5.41-7.19,3.51-12.71-6.25,7.88-13.72,13.48-23.91,13.68-10.5.2-17.35-5.7-22.58-15.15-4.82,8.71-10.64,15.91-21.22,15.01-10.36-.89-16.14-7.56-18.79-18.28-7.13,11.2-15.72,19.24-28.96,18.31-13.99-.99-19.73-11.38-23.84-23.88-.89,1.59-1.45,2.7-2.12,3.74-2.88,4.46-5.29,9.34-8.79,13.25-9.32,10.39-22.91,9.22-30.13-2.76-2.94-4.87-4.33-10.72-6.14-16.21-.81-2.45-.94-5.14-1.51-8.48-2.58,4.64-4.62,8.78-7.07,12.65-12.26,19.4-30.68,26.33-52.59,19.91-.8-.23-1.71-.36-2.34-.84-2.78-2.13-7.92-4.64-7.71-6.5.46-4.02,3.35-7.98,5.98-11.39.74-.96,4.3-.48,6.14.32,3.01,1.32,5.5,3.81,8.5,5.15,6.28,2.8,11.54.17,13.66-6.43,2.09-6.5.3-12.46-3.8-17.31-4.81-5.68-10.47-10.64-16.15-16.3-3.86,6.44-7.35,12.65-11.21,18.64-5.68,8.8-11.18,17.77-17.63,25.99-3.15,4.01-7.91,7.2-12.57,9.49-6.52,3.2-13.05.43-15.41-6.42-1.87-5.43-3.22-11.33-3.25-17.03-.1-16.32.58-32.64.94-48.97.04-1.65,0-3.29,0-6.36-2.12,2.04-3.59,3.17-4.7,4.58-10.85,13.73-16.86,29.76-21.41,46.37-2.19,8-3.32,16.29-5.38,24.33-.45,1.76-2.57,4-4.28,4.37-8.91,1.92-13.39-1.32-14.64-10.25-.48-3.45-.61-6.97-.59-10.46.1-22.66.27-45.33.47-67.99.05-5.97.99-6.77,6.76-5.91,1.96.29,3.86.98,5.79,1.48,4.12,1.08,5.76,3.47,5.64,7.98-.32,12.48-.11,24.98.48,37.86.56-1.33,1.12-2.66,1.68-3.99,3.72-8.89,6.9-18.06,11.37-26.56,2.71-5.15,6.96-9.77,11.36-13.67,5.47-4.85,11.84-4.11,18.15-.71,6.05,3.25,9.69,7.2,9.26,14.89-.87,15.29-.92,30.64-1.11,45.97-.04,3.29.46,6.66,1.21,9.88.75,3.25,3.02,3.92,5.58,1.74,1.76-1.49,3.49-3.2,4.67-5.15,7.42-12.22,14.68-24.54,21.79-36.47-7.58-12.21-6.83-21.87,1.95-29.86,1.58-1.44,3.44-2.66,5.35-3.61,5.64-2.79,13.37-2.55,16.02.73,3.91,4.84,1.8,9.85-.53,14.51-2.14,4.28-4.82,8.3-7.42,12.7,5.23,3.98,10.48,8.06,15.82,12.02,9.69,7.18,16.88,15.68,15.28,28.97.72.55,1.43,1.1,2.15,1.65.65-1.53,1.01-3.29,2-4.55,7.07-9.01,11.8-18.7,11.42-30.62-.41-13.13-.09-26.29-.09-40.52-6.06,0-12-.14-17.93.05-4.17.13-5.64-1.57-5.32-5.67.57-7.26,2.59-9.27,9.74-9.11,4.5.1,8.99.15,13.49.19.3,0,.61-.24,2.04-.85,0-5.94-.22-12.4.05-18.84.45-10.75,1.69-11.57,11.99-8.96.32.08.63.21.96.29q8.92,2.4,8.72,11.33c-.15,5.66-.39,11.31-.57,16.97,0,.13.18.27.71,1.01,4.12.28,8.72.62,13.32.9,2.83.17,5.69.04,8.48.44,2.84.41,6.76-.48,6.4,4.73-.38,5.51-2.21,7.91-7.19,7.99-7.15.12-14.3.03-21.9.03-.36,5.33-.89,9.92-.94,14.52-.21,18.48-.4,36.97-.28,55.45.02,3.39,1.12,6.93,2.39,10.13,2.28,5.79,6.23,6.78,10.86,2.51,7.8-7.2,11.48-16.44,12.52-26.97.82-8.26,1.38-16.7,3.64-24.6,1.88-6.55,5.29-13.02,9.39-18.5,9.55-12.75,24.6-13.14,35.7-1.67.46.47.73,1.12.81,1.24,2.11-2.29,4.03-5.97,5.63-5.83,4.79.4,9.57,2.02,14.09,3.83.96.39,1.12,3.58,1.11,5.47-.01,18.32-.26,36.65-.12,54.97.03,3.92.82,8.04,2.27,11.67.91,2.28,3.58,5.1,5.69,5.31,2.38.24,5.74-1.59,7.41-3.58,3.98-4.73,5.24-10.39,4.49-16.8-1.8-15.29-.38-30.31,6.2-44.43,2.01-4.32,4.6-8.58,7.78-12.11,9.5-10.56,23.56-10.59,33.48-.49.69.7,1.25,1.52,2,2.43,2.39-6.45,4.16-7.45,10.44-6.21,9.02,1.78,10.18,2.96,10.07,9.91-.27,17.66-.52,35.32-.75,52.99-.02,1.58.14,3.16,1.17,5.06,1.78-2.7,3.93-5.23,5.27-8.13,5.29-11.44,10.35-22.99,15.43-34.53,1.15-2.62.8-4.7-1.51-7-4.63-4.59-4.11-10.31-1.8-15.83,2.16-5.2,6.13-8.18,11.96-8.31,6.32-.14,9.59,3.05,9.56,9.38,0,1.63,0,3.26,0,5.53,5.58-.98,10.92-1.94,16.27-2.87,1.64-.28,3.28-.66,4.92-.73,8.6-.34,12.67,4.45,11.03,12.87-1.68,8.66-4.22,17.26-4.78,25.99-.58,9.02.61,18.18,1.39,27.25.19,2.18,1.5,4.43,2.78,6.32,3.24,4.78,8.49,5.17,12.16.72,3.2-3.89,5.23-8.24,4.37-13.74-2.2-14.17-1.94-28.4,2.96-41.94,2.44-6.74,6.13-13.45,10.77-18.87,9.08-10.59,23.27-10.32,33.03-.42.79.8,1.55,1.63,2.48,2.6ZM588.49,92.6c-1.76-8.13-2.48-15.86-5.19-22.82-3.41-8.74-13.48-9.62-19.21-2.14-2.26,2.95-4.44,6.62-4.88,10.18-1.36,10.81-2.29,21.72-2.48,32.61-.08,4.81,1.4,9.91,3.28,14.43,3.84,9.26,11.83,10.16,18.18,2.32,1.75-2.16,3.46-4.68,4.13-7.3,2.32-9.09,4.18-18.3,6.17-27.28ZM308.48,101.62c1.79,7.86,2.81,16.37,5.75,24.16,3.08,8.14,10.81,8.89,16.7,2.35,2.18-2.42,4.04-5.39,5.19-8.43,5.33-14.05,6.22-28.58,3.36-43.25-1.74-8.91-5.88-13.29-11.74-13.69-5.78-.4-11.21,3.48-13.68,11.79-2.54,8.53-3.66,17.47-5.57,27.08ZM431.44,91.35c-1.4-7.63-1.89-14.71-4.1-21.2-2.84-8.36-11.92-10.04-17.99-3.61-2.76,2.92-4.88,6.8-6.25,10.61-3.71,10.32-4.85,21.15-3.52,32,.74,6.01,2.14,12.21,4.65,17.68,3.12,6.8,9.93,7.65,15.16,2.25,2.8-2.89,5.45-6.62,6.47-10.43,2.42-9.09,3.83-18.45,5.57-27.3ZM432.48,154.63c-.57-.32-1.15-.64-1.72-.96-6.6,8.18-13.53,16.14-19.66,24.66-2.62,3.64-4.11,8.33-5.19,12.78-1.6,6.59,1.16,11.92,6.14,13.61,5.59,1.9,12.3-.87,14.98-6.82,6.24-13.89,5.44-28.64,5.46-43.27Z"/>
      <path class="cls-1" d="M32.7,162.72c.59-3.44.91-5.18,1.17-6.93,1.41-9.51,3.85-19.01,4.01-28.55.62-36.14.51-72.29.65-108.44,0-1.81-.18-3.63-.33-6.58-1.88,1.47-3.26,2.24-4.24,3.36-13.07,14.91-18.1,32.34-15.36,51.84.58,4.13,3.2,7.95,4.66,11.99.67,1.87.81,3.92,1.2,5.89-2.06-.11-4.32.3-6.15-.4C6.07,80.19-2.01,66.25.44,52.42,4.29,30.59,15.94,13.8,35.15,2.42c4.45-2.64,9-3,13.92-1.6,8.04,2.29,9.92,4.55,9.91,12.96-.03,33.98.15,67.97-.34,101.94-.12,8.7-1.73,17.54-3.86,26.02-1.94,7.73-6.83,14.07-14.02,18.1-2.05,1.15-4.47,1.62-8.06,2.88Z"/>
    </g>
  </g>
</svg>